<svg width="25" height="24" viewBox="0 0 25 24" fill="none" xmlns="http://www.w3.org/2000/svg">
<path d="M12.5024 6.64651C9.26904 6.64651 6.63867 9.2824 6.63867 12.5224C6.63867 14.4746 7.60091 16.2913 9.21437 17.3878C9.22017 17.3932 9.22635 17.3983 9.23291 17.403L9.28766 17.4433C9.93673 17.9311 10.5736 18.8667 10.5736 19.3318H14.4561V19.3075C14.4561 18.8445 15.0874 17.9155 15.7338 17.4253C15.7384 17.4227 15.7429 17.4198 15.7474 17.4168C17.387 16.3232 18.3659 14.4932 18.3659 12.5224C18.3659 9.2824 15.7356 6.64651 12.5024 6.64651Z" fill="#FBBC05"/>
<path d="M12.5024 6.64651C9.26904 6.64651 6.63867 9.27688 6.63867 12.51C6.63867 14.4582 7.60091 16.2711 9.21437 17.3653C9.22017 17.3707 9.22635 17.3757 9.23291 17.3805L9.28766 17.4206C9.93673 17.9074 10.5736 18.8411 10.5736 19.3052C10.5736 19.4141 10.6616 19.5022 10.7705 19.5022C10.8794 19.5022 10.9675 19.4141 10.9675 19.3054C10.9675 18.6473 10.2069 17.618 9.52457 17.1061L9.48836 17.0795C9.4795 17.0707 9.46966 17.0626 9.45888 17.0553C7.93958 16.036 7.03272 14.3367 7.03272 12.51C7.03272 9.49409 9.48645 7.04037 12.5026 7.04037C15.5185 7.04037 17.9723 9.49409 17.9723 12.51C17.9723 14.3187 17.0849 15.9996 15.5944 17.0227C15.5805 17.0286 15.5671 17.0362 15.5545 17.0453L15.5055 17.0815C14.8227 17.5939 14.062 18.6231 14.062 19.2812C14.062 19.3901 14.15 19.4781 14.2589 19.4781C14.3676 19.4781 14.4559 19.3901 14.4561 19.281C14.4561 18.819 15.0874 17.8919 15.7338 17.4027C15.7384 17.4001 15.7429 17.3973 15.7474 17.3942C17.387 16.3029 18.3659 14.4768 18.3659 12.51C18.3659 9.27688 15.7356 6.64651 12.5024 6.64651Z" fill="black"/>
<path d="M12.0077 19.0855L10.3842 12.8365C10.3568 12.7312 10.2481 12.6676 10.1442 12.6955C10.0388 12.7229 9.97559 12.8304 10.003 12.9356L11.6264 19.1843C11.6495 19.2731 11.7294 19.3318 11.8169 19.3318C11.8334 19.3318 11.85 19.3298 11.8665 19.3255C11.9718 19.2981 12.0351 19.1906 12.0077 19.0855Z" fill="black"/>
<path d="M14.8747 12.6955C14.7706 12.6676 14.6622 12.7314 14.6347 12.8365L13.0112 19.0855C12.984 19.1906 13.047 19.2981 13.1524 19.3255C13.1689 19.3299 13.1855 19.3318 13.202 19.3318C13.2897 19.3318 13.3694 19.2731 13.3925 19.1843L15.0159 12.9356C15.0431 12.8304 14.9801 12.7229 14.8747 12.6955Z" fill="black"/>
<path d="M14.6324 13.087C14.3509 13.087 14.2141 13.2849 14.114 13.4293C14.0217 13.563 13.9849 13.6018 13.9199 13.6018C13.8549 13.6018 13.8183 13.563 13.7257 13.4293C13.6257 13.2849 13.489 13.087 13.2076 13.087C12.9262 13.087 12.7895 13.2849 12.6895 13.4293C12.5971 13.563 12.5603 13.6018 12.4953 13.6018C12.4307 13.6018 12.3941 13.563 12.3019 13.4293C12.2021 13.2849 12.0654 13.087 11.7844 13.087C11.503 13.087 11.3661 13.2849 11.2663 13.4295C11.1739 13.563 11.1373 13.6018 11.0725 13.6018C11.0077 13.6018 10.9711 13.563 10.8787 13.4293C10.7789 13.2849 10.6422 13.087 10.361 13.087C10.2521 13.087 10.1641 13.1751 10.1641 13.284C10.1641 13.3929 10.2521 13.4809 10.361 13.4809C10.4258 13.4809 10.4624 13.5197 10.5548 13.6534C10.6546 13.7977 10.7913 13.9957 11.0725 13.9957C11.3537 13.9957 11.4904 13.7977 11.5902 13.6534C11.6826 13.5197 11.7194 13.4809 11.7844 13.4809C11.849 13.4809 11.8854 13.5197 11.9776 13.6532C12.0774 13.7977 12.2141 13.9957 12.4953 13.9957C12.7767 13.9957 12.9134 13.7977 13.0134 13.6534C13.1058 13.5197 13.1426 13.4809 13.2076 13.4809C13.2726 13.4809 13.3092 13.5197 13.4018 13.6534C13.5018 13.7977 13.6385 13.9957 13.9199 13.9957C14.2013 13.9957 14.338 13.7977 14.438 13.6534C14.5303 13.5197 14.5672 13.4809 14.6324 13.4809C14.7413 13.4809 14.8293 13.3929 14.8293 13.284C14.8293 13.1751 14.7413 13.087 14.6324 13.087Z" fill="black"/>
<path d="M15.2768 8.38618C15.187 8.32552 15.0643 8.34915 15.0035 8.43915C14.9426 8.52934 14.9663 8.65183 15.0565 8.71268C16.3205 9.56696 17.0754 10.9866 17.0754 12.51C17.0754 12.6189 17.1634 12.707 17.2723 12.707C17.3812 12.707 17.4692 12.6189 17.4692 12.5098C17.4692 10.8555 16.6496 9.31371 15.2768 8.38618Z" fill="black"/>
<path d="M11.7173 22.8501C11.7173 22.7412 11.8053 22.6532 11.9142 22.6532H13.0857C13.1946 22.6532 13.2827 22.7412 13.2827 22.8501V23.374C13.2827 23.6457 13.123 23.8283 12.8853 23.8283H12.1326C11.8918 23.8283 11.7173 23.6373 11.7173 23.374V22.8501Z" fill="#C1C1C1"/>
<path d="M14.2575 18.9427H10.7423C10.6334 18.9427 10.5454 19.0307 10.5454 19.1396V21.3734C10.5454 22.2964 11.2918 23.0471 12.2091 23.0471H12.8083C13.716 23.0471 14.4544 22.2964 14.4544 21.3734V19.1396C14.4544 19.0307 14.3664 18.9427 14.2575 18.9427Z" fill="#CCCCCC"/>
<path d="M13.0857 22.6532C12.9768 22.6532 12.8888 22.7412 12.8888 22.8501V23.374C12.8888 23.4098 12.8829 23.4309 12.8839 23.4344H12.1255C12.1228 23.4319 12.1111 23.4128 12.1111 23.374V22.8501C12.1111 22.7412 12.0231 22.6532 11.9142 22.6532C11.8053 22.6532 11.7173 22.7412 11.7173 22.8501V23.374C11.7173 23.6373 11.8918 23.8283 12.1326 23.8283H12.8853C13.123 23.8283 13.2827 23.6457 13.2827 23.374V22.8501C13.2827 22.7412 13.1946 22.6532 13.0857 22.6532Z" fill="black"/>
<mask id="path-10-inside-1_629_91" fill="white">
<path d="M14.2575 18.9427H10.7423C10.6334 18.9427 10.5454 19.0307 10.5454 19.1396V21.3734C10.5454 22.2964 11.2918 23.0471 12.2091 23.0471H12.8083C13.716 23.0471 14.4544 22.2964 14.4544 21.3734V19.1396C14.4544 19.0307 14.3664 18.9427 14.2575 18.9427ZM14.0604 21.3734C14.0604 22.0792 13.4987 22.6532 12.8083 22.6532H12.2091C11.509 22.6532 10.9393 22.0792 10.9393 21.3734V19.3365H14.0604V21.3734Z"/>
</mask>
<path d="M14.2575 18.9427H10.7423C10.6334 18.9427 10.5454 19.0307 10.5454 19.1396V21.3734C10.5454 22.2964 11.2918 23.0471 12.2091 23.0471H12.8083C13.716 23.0471 14.4544 22.2964 14.4544 21.3734V19.1396C14.4544 19.0307 14.3664 18.9427 14.2575 18.9427ZM14.0604 21.3734C14.0604 22.0792 13.4987 22.6532 12.8083 22.6532H12.2091C11.509 22.6532 10.9393 22.0792 10.9393 21.3734V19.3365H14.0604V21.3734Z" fill="#CCCCCC"/>
<path d="M10.9393 19.3365V18.3365H9.93927V19.3365H10.9393ZM14.0604 19.3365H15.0604V18.3365H14.0604V19.3365ZM14.2575 17.9427H10.7423V19.9427H14.2575V17.9427ZM10.7423 17.9427C10.0812 17.9427 9.54541 18.4784 9.54541 19.1396H11.5454C11.5454 19.583 11.1857 19.9427 10.7423 19.9427V17.9427ZM9.54541 19.1396V21.3734H11.5454V19.1396H9.54541ZM9.54541 21.3734C9.54541 22.843 10.7339 24.0471 12.2091 24.0471V22.0471C11.8497 22.0471 11.5454 21.7497 11.5454 21.3734H9.54541ZM12.2091 24.0471H12.8083V22.0471H12.2091V24.0471ZM12.8083 24.0471C14.2838 24.0471 15.4544 22.833 15.4544 21.3734H13.4544C13.4544 21.7597 13.1481 22.0471 12.8083 22.0471V24.0471ZM15.4544 21.3734V19.1396H13.4544V21.3734H15.4544ZM15.4544 19.1396C15.4544 18.4784 14.9187 17.9427 14.2575 17.9427V19.9427C13.8141 19.9427 13.4544 19.583 13.4544 19.1396H15.4544ZM13.0604 21.3734C13.0604 21.5476 12.9259 21.6532 12.8083 21.6532V23.6532C14.0716 23.6532 15.0604 22.6107 15.0604 21.3734H13.0604ZM12.8083 21.6532H12.2091V23.6532H12.8083V21.6532ZM12.2091 21.6532C12.0686 21.6532 11.9393 21.5342 11.9393 21.3734H9.93927C9.93927 22.6241 10.9494 23.6532 12.2091 23.6532V21.6532ZM11.9393 21.3734V19.3365H9.93927V21.3734H11.9393ZM10.9393 20.3365H14.0604V18.3365H10.9393V20.3365ZM13.0604 19.3365V21.3734H15.0604V19.3365H13.0604Z" fill="black" mask="url(#path-10-inside-1_629_91)"/>
<path d="M13.0856 20.1146H10.7423C10.6334 20.1146 10.5454 20.2026 10.5454 20.3115C10.5454 20.4204 10.6334 20.5085 10.7423 20.5085H13.0858C13.1945 20.5085 13.2825 20.4204 13.2825 20.3115C13.2825 20.2026 13.1945 20.1146 13.0856 20.1146Z" fill="black"/>
<path d="M13.0856 21.091H10.7423C10.6334 21.091 10.5454 21.179 10.5454 21.2879C10.5454 21.3968 10.6334 21.4848 10.7423 21.4848H13.0858C13.1945 21.4848 13.2825 21.3968 13.2825 21.2879C13.2825 21.179 13.1945 21.091 13.0856 21.091Z" fill="black"/>
<path d="M14.2574 20.1146H13.8668C13.7579 20.1146 13.6699 20.2026 13.6699 20.3115C13.6699 20.4204 13.7579 20.5085 13.8668 20.5085H14.2574C14.3663 20.5085 14.4543 20.4204 14.4543 20.3115C14.4543 20.2026 14.3663 20.1146 14.2574 20.1146Z" fill="black"/>
<path d="M14.2574 21.091H13.8668C13.7579 21.091 13.6699 21.179 13.6699 21.2879C13.6699 21.3968 13.7579 21.4848 13.8668 21.4848H14.2574C14.3663 21.4848 14.4543 21.3968 14.4543 21.2879C14.4543 21.179 14.3663 21.091 14.2574 21.091Z" fill="black"/>
<path d="M14.0623 21.872H10.9377C10.8287 21.872 10.7407 21.96 10.7407 22.0689C10.7407 22.1778 10.8287 22.2658 10.9377 22.2658H14.0625C14.1712 22.2658 14.2592 22.1778 14.2592 22.0689C14.2592 21.96 14.1712 21.872 14.0623 21.872Z" fill="black"/>
<mask id="path-17-inside-2_629_91" fill="white">
<path d="M5.66483 12.3031H0.196928C0.0880268 12.3031 0 12.3911 0 12.5C0 12.6089 0.0880268 12.6969 0.196928 12.6969H5.66483C5.77373 12.6969 5.86176 12.6089 5.86176 12.5C5.86176 12.3911 5.77373 12.3031 5.66483 12.3031Z"/>
<path d="M24.8032 12.3031H19.3351C19.2262 12.3031 19.1382 12.3911 19.1382 12.5C19.1382 12.6089 19.2262 12.6969 19.3351 12.6969H24.8032C24.9119 12.6969 25.0001 12.6089 25.0001 12.5C25.0001 12.3911 24.9121 12.3031 24.8032 12.3031Z"/>
<path d="M12.5002 0C12.3912 0 12.3032 0.0882237 12.3032 0.196928V5.66503C12.3032 5.77373 12.3912 5.86195 12.5002 5.86195C12.6091 5.86195 12.6971 5.77373 12.6971 5.66503V0.196928C12.6971 0.0882237 12.6091 0 12.5002 0Z"/>
<path d="M21.3423 3.65991C21.2653 3.58291 21.1409 3.58291 21.0639 3.65991L17.1974 7.52639C17.1204 7.60339 17.1204 7.72785 17.1974 7.80485C17.2358 7.84325 17.2862 7.86255 17.3366 7.86255C17.3868 7.86255 17.4373 7.84325 17.4759 7.80485L21.3423 3.93836C21.4193 3.86136 21.4193 3.73691 21.3423 3.65991Z"/>
<path d="M7.80689 7.52639L3.94021 3.65991C3.86321 3.58291 3.73875 3.58291 3.66175 3.65991C3.58475 3.73691 3.58475 3.86136 3.66175 3.93836L7.52843 7.80485C7.56683 7.84325 7.61725 7.86255 7.66766 7.86255C7.71807 7.86255 7.76849 7.84325 7.80689 7.80485C7.88389 7.72785 7.88389 7.60339 7.80689 7.52639Z"/>
<path d="M17.2861 0.949582C17.1863 0.908031 17.0703 0.955687 17.0288 1.05612L14.9364 6.10772C14.8948 6.20835 14.9425 6.32355 15.0429 6.3651C15.0676 6.37534 15.0932 6.38026 15.1184 6.38026C15.1954 6.38026 15.269 6.33438 15.3003 6.25856L17.3927 1.20697C17.4342 1.10634 17.3866 0.991134 17.2861 0.949582Z"/>
<path d="M6.26071 9.70166L1.20892 7.6089C1.10888 7.56755 0.993087 7.61481 0.951536 7.71544C0.909984 7.81607 0.95764 7.93128 1.05807 7.97283L6.11006 10.0656C6.13468 10.0758 6.16028 10.0807 6.18549 10.0807C6.26248 10.0807 6.33594 10.0349 6.36725 9.95904C6.4088 9.85841 6.36115 9.74321 6.26071 9.70166Z"/>
<path d="M10.0677 6.10772L7.97513 1.05613C7.93358 0.955696 7.81798 0.908237 7.71774 0.949592C7.61731 0.99134 7.56965 1.10654 7.6112 1.20698L9.70376 6.25857C9.73507 6.33439 9.80853 6.38027 9.88572 6.38027C9.91093 6.38027 9.93633 6.37535 9.96115 6.36511C10.0616 6.32336 10.1092 6.20816 10.0677 6.10772Z"/>
<path d="M24.0523 7.71544C24.0108 7.61481 23.8952 7.56755 23.7949 7.6089L18.7431 9.70166C18.6427 9.74341 18.595 9.85861 18.6366 9.95904C18.6679 10.0351 18.7414 10.0807 18.8186 10.0807C18.8438 10.0807 18.8694 10.0758 18.894 10.0656L23.9458 7.97283C24.0462 7.93108 24.0939 7.81588 24.0523 7.71544Z"/>
</mask>
<path d="M21.3423 3.65991L22.0494 2.9528L22.0494 2.9528L21.3423 3.65991ZM21.0639 3.65991L20.3568 2.9528L20.3568 2.9528L21.0639 3.65991ZM17.1974 7.52639L16.4903 6.81928V6.81928L17.1974 7.52639ZM17.1974 7.80485L17.9045 7.09774L17.9045 7.09774L17.1974 7.80485ZM17.4759 7.80485L18.1812 8.51376L18.183 8.51195L17.4759 7.80485ZM21.3423 3.93836L22.0494 4.64547V4.64547L21.3423 3.93836ZM7.80689 7.52639L8.514 6.81928L8.51398 6.81926L7.80689 7.52639ZM3.94021 3.65991L3.2331 4.36701L3.23312 4.36703L3.94021 3.65991ZM3.66175 3.93836L2.95465 4.64547L2.95466 4.64549L3.66175 3.93836ZM7.52843 7.80485L8.23554 7.09774L8.23552 7.09772L7.52843 7.80485ZM17.2861 0.949582L16.9019 1.87282L16.9038 1.87362L17.2861 0.949582ZM17.0288 1.05612L17.9526 1.43879L17.9528 1.43842L17.0288 1.05612ZM14.9364 6.10772L14.0125 5.72504L14.0121 5.72606L14.9364 6.10772ZM15.0429 6.3651L15.427 5.44181L15.4252 5.44106L15.0429 6.3651ZM15.3003 6.25856L14.3764 5.87589L14.376 5.87685L15.3003 6.25856ZM17.3927 1.20697L18.3166 1.58964L18.317 1.58863L17.3927 1.20697ZM6.26071 9.70166L5.87799 10.6255L5.87841 10.6257L6.26071 9.70166ZM1.20892 7.6089L1.59164 6.68504L1.59095 6.68476L1.20892 7.6089ZM1.05807 7.97283L1.44078 7.04896L1.44037 7.04879L1.05807 7.97283ZM6.11006 10.0656L6.49415 9.14228L6.49277 9.14171L6.11006 10.0656ZM6.36725 9.95904L7.29153 10.3408L7.29155 10.3407L6.36725 9.95904ZM10.0677 6.10772L10.9917 5.72543L10.9916 5.72502L10.0677 6.10772ZM7.97513 1.05613L7.05109 1.43843L7.05126 1.43883L7.97513 1.05613ZM7.71774 0.949592L7.33635 0.0251737L7.3339 0.0261935L7.71774 0.949592ZM7.6112 1.20698L6.68716 1.58927L6.68733 1.58968L7.6112 1.20698ZM9.70376 6.25857L10.628 5.87686L10.6276 5.87587L9.70376 6.25857ZM9.96115 6.36511L10.3426 7.28949L10.345 7.28851L9.96115 6.36511ZM24.0523 7.71544L23.128 8.0971L23.1283 8.09774L24.0523 7.71544ZM23.7949 7.6089L23.4135 6.68449L23.4122 6.68504L23.7949 7.6089ZM18.7431 9.70166L18.3604 8.77779L18.3593 8.77826L18.7431 9.70166ZM18.6366 9.95904L19.5612 9.57817L19.5606 9.57675L18.6366 9.95904ZM18.894 10.0656L18.5113 9.14172L18.5099 9.14229L18.894 10.0656ZM23.9458 7.97283L24.3285 8.89669L24.3296 8.89623L23.9458 7.97283ZM5.66483 11.3031H0.196928V13.3031H5.66483V11.3031ZM0.196928 11.3031C-0.464259 11.3031 -1 11.8388 -1 12.5H1C1 12.9434 0.640312 13.3031 0.196928 13.3031V11.3031ZM-1 12.5C-1 13.1612 -0.464259 13.6969 0.196928 13.6969V11.6969C0.640312 11.6969 1 12.0566 1 12.5H-1ZM0.196928 13.6969H5.66483V11.6969H0.196928V13.6969ZM5.66483 13.6969C6.32601 13.6969 6.86176 13.1612 6.86176 12.5H4.86176C4.86176 12.0566 5.22145 11.6969 5.66483 11.6969V13.6969ZM6.86176 12.5C6.86176 11.8388 6.32601 11.3031 5.66483 11.3031V13.3031C5.22145 13.3031 4.86176 12.9434 4.86176 12.5H6.86176ZM24.8032 11.3031H19.3351V13.3031H24.8032V11.3031ZM19.3351 11.3031C18.6739 11.3031 18.1382 11.8388 18.1382 12.5H20.1382C20.1382 12.9434 19.7785 13.3031 19.3351 13.3031V11.3031ZM18.1382 12.5C18.1382 13.1612 18.6739 13.6969 19.3351 13.6969V11.6969C19.7785 11.6969 20.1382 12.0566 20.1382 12.5H18.1382ZM19.3351 13.6969H24.8032V11.6969H19.3351V13.6969ZM24.8032 13.6969C25.4635 13.6969 26.0001 13.1618 26.0001 12.5H24.0001C24.0001 12.056 24.3603 11.6969 24.8032 11.6969V13.6969ZM26.0001 12.5C26.0001 11.8388 25.4644 11.3031 24.8032 11.3031V13.3031C24.3598 13.3031 24.0001 12.9434 24.0001 12.5H26.0001ZM12.5002 -1C11.8383 -1 11.3032 -0.46341 11.3032 0.196928H13.3032C13.3032 0.639858 12.9442 1 12.5002 1V-1ZM11.3032 0.196928V5.66503H13.3032V0.196928H11.3032ZM11.3032 5.66503C11.3032 6.32537 11.8383 6.86195 12.5002 6.86195V4.86195C12.9442 4.86195 13.3032 5.22209 13.3032 5.66503H11.3032ZM12.5002 6.86195C13.162 6.86195 13.6971 6.32537 13.6971 5.66503H11.6971C11.6971 5.22209 12.0561 4.86195 12.5002 4.86195V6.86195ZM13.6971 5.66503V0.196928H11.6971V5.66503H13.6971ZM13.6971 0.196928C13.6971 -0.46341 13.162 -1 12.5002 -1V1C12.0561 1 11.6971 0.639858 11.6971 0.196928H13.6971ZM22.0494 2.9528C21.5819 2.48528 20.8243 2.48528 20.3568 2.9528L21.771 4.36701C21.4575 4.68054 20.9488 4.68054 20.6352 4.36701L22.0494 2.9528ZM20.3568 2.9528L16.4903 6.81928L17.9045 8.2335L21.771 4.36701L20.3568 2.9528ZM16.4903 6.81928C16.0228 7.28681 16.0228 8.04443 16.4903 8.51195L17.9045 7.09774C18.218 7.41126 18.218 7.91997 17.9045 8.2335L16.4903 6.81928ZM16.4903 8.51195C16.7233 8.74499 17.0312 8.86255 17.3366 8.86255V6.86255C17.5412 6.86255 17.7483 6.9415 17.9045 7.09774L16.4903 8.51195ZM17.3366 8.86255C17.6428 8.86255 17.9493 8.74438 18.1812 8.51376L16.7706 7.09593C16.9252 6.94211 17.1308 6.86255 17.3366 6.86255V8.86255ZM18.183 8.51195L22.0494 4.64547L20.6352 3.23126L16.7687 7.09774L18.183 8.51195ZM22.0494 4.64547C22.517 4.17795 22.517 3.42032 22.0494 2.9528L20.6352 4.36701C20.3217 4.05349 20.3217 3.54478 20.6352 3.23126L22.0494 4.64547ZM8.51398 6.81926L4.6473 2.95278L3.23312 4.36703L7.0998 8.23351L8.51398 6.81926ZM4.64732 2.9528C4.17979 2.48528 3.42217 2.48528 2.95465 2.9528L4.36886 4.36701C4.05533 4.68054 3.54663 4.68054 3.2331 4.36701L4.64732 2.9528ZM2.95465 2.9528C2.48712 3.42032 2.48712 4.17795 2.95465 4.64547L4.36886 3.23126C4.68238 3.54478 4.68239 4.05349 4.36886 4.36701L2.95465 2.9528ZM2.95466 4.64549L6.82134 8.51197L8.23552 7.09772L4.36884 3.23124L2.95466 4.64549ZM6.82132 8.51195C7.05436 8.74499 7.36224 8.86255 7.66766 8.86255V6.86255C7.87226 6.86255 8.07931 6.94151 8.23554 7.09774L6.82132 8.51195ZM7.66766 8.86255C7.97308 8.86255 8.28096 8.74499 8.514 8.51195L7.09978 7.09774C7.25602 6.94151 7.46307 6.86255 7.66766 6.86255V8.86255ZM8.514 8.51195C8.98152 8.04443 8.98152 7.28681 8.514 6.81928L7.09978 8.23349C6.78626 7.91997 6.78626 7.41127 7.09978 7.09774L8.514 8.51195ZM17.6704 0.0263442C17.0606 -0.227415 16.358 0.0615574 16.1047 0.673822L17.9528 1.43842C17.7826 1.84982 17.312 2.04348 16.9019 1.87282L17.6704 0.0263442ZM16.1049 0.673449L14.0125 5.72505L15.8603 6.49039L17.9526 1.43879L16.1049 0.673449ZM14.0121 5.72606C13.7606 6.33505 14.0483 7.03578 14.6606 7.28914L15.4252 5.44106C15.8368 5.61131 16.0291 6.08164 15.8607 6.48938L14.0121 5.72606ZM14.6588 7.28839C14.8062 7.34971 14.9625 7.38026 15.1184 7.38026V5.38026C15.2238 5.38026 15.3289 5.40097 15.427 5.44181L14.6588 7.28839ZM15.1184 7.38026C15.5853 7.38026 16.0331 7.10391 16.2246 6.64028L14.376 5.87685C14.5049 5.56485 14.8055 5.38026 15.1184 5.38026V7.38026ZM16.2242 6.64123L18.3166 1.58964L16.4688 0.824296L14.3764 5.87589L16.2242 6.64123ZM18.317 1.58863C18.5684 0.979635 18.2808 0.278901 17.6684 0.0255434L16.9038 1.87362C16.4923 1.70337 16.3 1.23304 16.4684 0.825308L18.317 1.58863ZM6.64343 8.77779L1.59164 6.68504L0.826201 8.53277L5.87799 10.6255L6.64343 8.77779ZM1.59095 6.68476C0.985053 6.43429 0.281557 6.71786 0.0272325 7.33378L1.87584 8.0971C1.70462 8.51176 1.23271 8.70081 0.82689 8.53305L1.59095 6.68476ZM0.0272325 7.33378C-0.224228 7.94277 0.0633886 8.64351 0.675775 8.89687L1.44037 7.04879C1.85189 7.21905 2.0442 7.68938 1.87584 8.0971L0.0272325 7.33378ZM0.675367 8.8967L5.72736 10.9895L6.49277 9.14171L1.44078 7.04896L0.675367 8.8967ZM5.72597 10.9889C5.87336 11.0502 6.02959 11.0807 6.18549 11.0807V9.08074C6.29097 9.08074 6.39599 9.10145 6.49415 9.14229L5.72597 10.9889ZM6.18549 11.0807C6.65353 11.0807 7.10048 10.8034 7.29153 10.3408L5.44297 9.57733C5.57139 9.26637 5.87144 9.08074 6.18549 9.08074V11.0807ZM7.29155 10.3407C7.54301 9.73172 7.2554 9.03098 6.64301 8.77762L5.87841 10.6257C5.46689 10.4554 5.27459 9.98511 5.44295 9.57738L7.29155 10.3407ZM10.9916 5.72502L8.899 0.673428L7.05126 1.43883L9.14381 6.49043L10.9916 5.72502ZM8.89917 0.673831C8.64515 0.0598598 7.9432 -0.225194 7.33635 0.0251769L8.09913 1.87401C7.69275 2.04167 7.222 1.85153 7.05109 1.43843L8.89917 0.673831ZM7.3339 0.0261935C6.72427 0.279605 6.43465 0.978927 6.68716 1.58927L8.53524 0.824678C8.70466 1.23416 8.51034 1.70308 8.10159 1.87299L7.3339 0.0261935ZM6.68733 1.58968L8.77989 6.64127L10.6276 5.87587L8.53508 0.824275L6.68733 1.58968ZM8.77948 6.64029C8.97074 7.1034 9.41805 7.38027 9.88572 7.38027V5.38027C10.199 5.38027 10.4994 5.56538 10.628 5.87686L8.77948 6.64029ZM9.88572 7.38027C10.0431 7.38027 10.198 7.34917 10.3426 7.28949L9.57966 5.44073C9.67465 5.40153 9.77876 5.38027 9.88572 5.38027V7.38027ZM10.345 7.28851C10.9546 7.0351 11.2442 6.33577 10.9917 5.72543L9.14364 6.49002C8.97423 6.08054 9.16854 5.61163 9.5773 5.44171L10.345 7.28851ZM24.9766 7.33379C24.7223 6.71784 24.0192 6.43459 23.4135 6.68449L24.1763 8.53332C23.7711 8.70051 23.2992 8.51179 23.128 8.0971L24.9766 7.33379ZM23.4122 6.68504L18.3604 8.77779L19.1259 10.6255L24.1776 8.53277L23.4122 6.68504ZM18.3593 8.77826C17.7497 9.03168 17.46 9.731 17.7126 10.3413L19.5606 9.57675C19.73 9.98622 19.5357 10.4551 19.127 10.6251L18.3593 8.77826ZM17.712 10.3399C17.9036 10.8051 18.3522 11.0807 18.8186 11.0807V9.08074C19.1305 9.08074 19.4322 9.26499 19.5612 9.57817L17.712 10.3399ZM18.8186 11.0807C18.9744 11.0807 19.1307 11.0502 19.2781 10.9889L18.5099 9.14229C18.6081 9.10145 18.7131 9.08074 18.8186 9.08074V11.0807ZM19.2767 10.9894L24.3285 8.89669L23.5631 7.04896L18.5113 9.14172L19.2767 10.9894ZM24.3296 8.89623C24.9392 8.64281 25.2289 7.94349 24.9763 7.33314L23.1283 8.09774C22.9589 7.68827 23.1532 7.21935 23.5619 7.04943L24.3296 8.89623Z" fill="black" mask="url(#path-17-inside-2_629_91)"/>
</svg>
